<svg width="26" height="26" viewBox="0 0 26 26" fill="none" xmlns="http://www.w3.org/2000/svg">
<path d="M4 13C4 8.75736 4 6.63604 5.31802 5.31802C6.63604 4 8.75736 4 13 4C17.2426 4 19.364 4 20.6819 5.31802C22 6.63604 22 8.75736 22 13C22 17.2426 22 19.364 20.6819 20.6819C19.364 22 17.2426 22 13 22C8.75736 22 6.63604 22 5.31802 20.6819C4 19.364 4 17.2426 4 13Z" stroke="#B24675" stroke-width="2" stroke-linejoin="round"/>
<path d="M9 17L10.8419 10.5534C10.9363 10.2229 11.2014 10 11.5 10C11.7986 10 12.0637 10.2229 12.1581 10.5534L14 17M10 14.6667H13" stroke="#B24675" stroke-width="1.6" stroke-linecap="round" stroke-linejoin="round"/>
<path d="M17.0151 10L17 17" stroke="#B24675" stroke-width="1.6" stroke-linecap="round" stroke-linejoin="round"/>
<path d="M8.2 1V3.4M17.8 1V3.4M13 1V3.4M8.2 22.6V25M13 22.6V25M17.8 22.6V25M25 17.8H22.6M3.4 8.2H1M3.4 17.8H1M3.4 13H1M25 8.2H22.6M25 13H22.6" stroke="#B24675" stroke-width="2" stroke-linecap="round" stroke-linejoin="round"/>
</svg>
