<svg width="28" height="28" viewBox="0 0 28 28" fill="none" xmlns="http://www.w3.org/2000/svg">
<path d="M22.62 13.81C22.6215 14.9704 22.393 16.1196 21.9477 17.1912C21.5025 18.2628 20.8493 19.2355 20.0259 20.0532C19.2092 20.8684 18.2399 21.5147 17.1734 21.9551C16.1068 22.3956 14.9639 22.6215 13.81 22.62C8.94424 22.62 5.00001 18.6758 5.00001 13.81C4.99693 11.551 5.86465 9.37776 7.42276 7.74212C8.24488 6.8746 9.23538 6.18396 10.3336 5.71246C11.4319 5.24097 12.6148 4.99854 13.81 5.00001C14.9639 4.99851 16.1068 5.22443 17.1734 5.66486C18.2399 6.10528 19.2092 6.75158 20.0259 7.5668C20.8493 8.38447 21.5025 9.3572 21.9477 10.4288C22.393 11.5004 22.6215 12.6496 22.62 13.81Z" stroke="#B24675" stroke-width="1.5" stroke-linecap="round" stroke-linejoin="round"/>
<path d="M22.62 13.8101C21.3346 13.8101 17.7886 13.3255 14.6148 14.7188C11.167 16.2328 8.67068 18.5815 7.58264 20.0418" stroke="#B24675" stroke-width="1.5" stroke-linecap="round" stroke-linejoin="round"/>
<path d="M10.5062 5.64062C11.885 6.91323 14.8936 10.1531 16.0125 13.3696C17.1313 16.5862 17.5454 20.541 17.8009 21.6664" stroke="#B24675" stroke-width="1.5" stroke-linecap="round" stroke-linejoin="round"/>
<path d="M5.06787 12.7085C6.73208 12.8089 11.1375 12.8992 13.9567 11.6953C16.7759 10.4915 19.2017 8.27706 20.0338 7.57446M5.66078 17.1633C6.43708 19.0424 7.83716 20.5966 9.62528 21.5643" stroke="#B24675" stroke-width="1.5" stroke-linecap="round" stroke-linejoin="round"/>
<path d="M5.00001 13.81C4.99693 11.551 5.86465 9.37776 7.42276 7.74212C8.24488 6.8746 9.23538 6.18396 10.3336 5.71246C11.4319 5.24097 12.6148 4.99854 13.81 5.00001M17.334 5.733C18.3373 6.17197 19.2501 6.79383 20.0259 7.5668C20.8493 8.38446 21.5025 9.3572 21.9477 10.4288C22.393 11.5004 22.6215 12.6496 22.62 13.81C22.62 14.8945 22.424 15.9336 22.065 16.8935M13.81 22.62C14.9639 22.6215 16.1068 22.3956 17.1734 21.9551C18.2399 21.5147 19.2092 20.8684 20.0259 20.0532" stroke="#B24675" stroke-width="1.5" stroke-linecap="round" stroke-linejoin="round"/>
</svg>
