<svg width="28" height="28" viewBox="0 0 28 28" fill="none" xmlns="http://www.w3.org/2000/svg">
<g clip-path="url(#clip0_282_284)">
<path d="M11.3529 21.8797C6.8 23.3639 6.8 19.2294 5 18.6993M17.7059 24V20.2895C17.7059 19.2294 17.8118 18.8054 17.1765 18.1693C20.1412 17.8512 23 16.6851 23 11.8085C22.9987 10.5416 22.5051 9.32493 21.6235 8.41608C22.037 7.31562 21.9989 6.09611 21.5176 5.02366C21.5176 5.02366 20.3529 4.70562 17.8118 6.40183C15.6594 5.84058 13.3994 5.84058 11.2471 6.40183C8.70588 4.70562 7.54118 5.02366 7.54118 5.02366C7.05992 6.09611 7.02186 7.31562 7.43529 8.41608C6.55377 9.32493 6.06011 10.5416 6.05882 11.8085C6.05882 16.6851 8.91765 17.8512 11.8824 18.1693C11.2471 18.8054 11.2471 19.4414 11.3529 20.2895V24" stroke="#B24675" stroke-width="1.5" stroke-linecap="round" stroke-linejoin="round"/>
</g>
<defs>
<clipPath id="clip0_282_284">
<rect width="26" height="26" fill="white" transform="translate(1 1)"/>
</clipPath>
</defs>
</svg>
