<svg width="27" height="27" viewBox="0 0 27 27" fill="none" xmlns="http://www.w3.org/2000/svg">
<g clip-path="url(#clip0_403_583)">
<path d="M22.0908 6.90918C22.5128 7.33114 22.75 7.90326 22.75 8.5V18.5C22.75 19.0967 22.5128 19.6689 22.0908 20.0908C21.6689 20.5128 21.0967 20.75 20.5 20.75H6.5C5.90326 20.75 5.33114 20.5128 4.90918 20.0908C4.48722 19.6689 4.25 19.0967 4.25 18.5V8.5C4.25 7.90326 4.48722 7.33114 4.90918 6.90918C4.94154 6.87682 4.97569 6.84657 5.00977 6.81641L6.71973 8.09961L13.0498 12.8496L13.5 13.1875L13.9502 12.8496L20.2803 8.09961L21.9893 6.81641C22.0235 6.84672 22.0583 6.87664 22.0908 6.90918ZM21.0498 8.15039L13.6504 13.7002C13.6071 13.7326 13.5541 13.75 13.5 13.75C13.4459 13.75 13.3929 13.7327 13.3496 13.7002L5.9502 8.15039L4.75 7.25V18.5C4.75 18.9641 4.93451 19.4091 5.2627 19.7373C5.59088 20.0655 6.03587 20.25 6.5 20.25H20.5C20.9641 20.25 21.4091 20.0655 21.7373 19.7373C22.0655 19.4091 22.25 18.9641 22.25 18.5V7.25L21.0498 8.15039ZM6.5 6.25H20.5C21.0168 6.25 21.5147 6.42833 21.9131 6.75H5.08691C5.48526 6.42833 5.98324 6.25 6.5 6.25Z" fill="#B24675" stroke="#B24675" stroke-width="1.5"/>
</g>
<defs>
<clipPath id="clip0_403_583">
<rect width="22" height="22" fill="white" transform="translate(2.5 2.5)"/>
</clipPath>
</defs>
</svg>
