<svg width="20" height="20" viewBox="0 0 20 20" fill="none" xmlns="http://www.w3.org/2000/svg">
<g clip-path="url(#clip0_403_602)">
<path d="M10.2769 3.00667C10.3837 3.00667 10.4896 3.00667 10.5948 3.00667C9.5558 4.00142 8.88798 5.33987 8.70739 6.78935C8.5268 8.23883 8.84485 9.70769 9.60626 10.9406C10.3677 12.1735 11.5243 13.0925 12.8751 13.5379C14.2259 13.9832 15.6854 13.9268 17 13.3783C16.4943 14.6321 15.6678 15.7209 14.6087 16.5285C13.5496 17.3362 12.2975 17.8325 10.9861 17.9645C9.67471 18.0964 8.35314 17.8591 7.16237 17.2778C5.9716 16.6965 4.9563 15.7931 4.22477 14.6638C3.49325 13.5346 3.07293 12.2219 3.00866 10.8658C2.9444 9.50971 3.23859 8.16108 3.85985 6.96376C4.48112 5.76644 5.40616 4.76535 6.5363 4.06728C7.66644 3.3692 8.95928 3.00033 10.2769 3V3.00667Z" stroke="#202124" stroke-width="1.4" stroke-linecap="round" stroke-linejoin="round"/>
</g>
<defs>
<clipPath id="clip0_403_602">
<rect width="20" height="20" fill="white"/>
</clipPath>
</defs>
</svg>
