<svg width="26" height="26" viewBox="0 0 26 26" fill="none" xmlns="http://www.w3.org/2000/svg">
<g clip-path="url(#clip0_186_237)">
<path d="M12.5 23.9937C9.71523 23.9937 7.04451 22.8878 5.07538 20.9192C3.10625 18.9507 2 16.2808 2 13.4968C2 10.7129 3.10625 8.043 5.07538 6.07446C7.04451 4.10591 9.71523 3 12.5 3C18.2983 3 23 7.17775 23 12.3305C23 13.5668 22.447 14.7541 21.4623 15.6289C20.4777 16.5036 19.1418 16.9958 17.75 16.9958H14.8333C14.3128 16.9874 13.8045 17.1533 13.3891 17.467C12.9738 17.7807 12.6753 18.2243 12.5412 18.7271C12.4071 19.2299 12.445 19.7632 12.6489 20.242C12.8529 20.7208 13.2111 21.1177 13.6667 21.3695C13.8996 21.5844 14.0594 21.8668 14.1235 22.1771C14.1876 22.4874 14.1528 22.81 14.0241 23.0996C13.8954 23.3891 13.6791 23.6311 13.4058 23.7915C13.1324 23.9518 12.8156 24.0226 12.5 23.9937Z" stroke="#B24675" stroke-width="2" stroke-linecap="round" stroke-linejoin="round"/>
<path d="M7 11C7 11.2652 7.10536 11.5196 7.29289 11.7071C7.48043 11.8946 7.73478 12 8 12C8.26522 12 8.51957 11.8946 8.70711 11.7071C8.89464 11.5196 9 11.2652 9 11C9 10.7348 8.89464 10.4804 8.70711 10.2929C8.51957 10.1054 8.26522 10 8 10C7.73478 10 7.48043 10.1054 7.29289 10.2929C7.10536 10.4804 7 10.7348 7 11Z" fill="#B24675" stroke="#B24675" stroke-width="1.6" stroke-linecap="round" stroke-linejoin="round"/>
<path d="M11 8C11 8.26522 11.1054 8.51957 11.2929 8.70711C11.4804 8.89464 11.7348 9 12 9C12.2652 9 12.5196 8.89464 12.7071 8.70711C12.8946 8.51957 13 8.26522 13 8C13 7.73478 12.8946 7.48043 12.7071 7.29289C12.5196 7.10536 12.2652 7 12 7C11.7348 7 11.4804 7.10536 11.2929 7.29289C11.1054 7.48043 11 7.73478 11 8Z" fill="#B24675" stroke="#B24675" stroke-width="1.6" stroke-linecap="round" stroke-linejoin="round"/>
<path d="M15.7917 11.375C15.7917 11.6623 15.9058 11.9379 16.109 12.141C16.3122 12.3442 16.5877 12.4583 16.875 12.4583C17.1623 12.4583 17.4379 12.3442 17.6411 12.141C17.8442 11.9379 17.9584 11.6623 17.9584 11.375C17.9584 11.0877 17.8442 10.8121 17.6411 10.609C17.4379 10.4058 17.1623 10.2917 16.875 10.2917C16.5877 10.2917 16.3122 10.4058 16.109 10.609C15.9058 10.8121 15.7917 11.0877 15.7917 11.375Z" fill="#B24675" stroke="#B24675" stroke-width="1.6" stroke-linecap="round" stroke-linejoin="round"/>
</g>
<defs>
<clipPath id="clip0_186_237">
<rect width="26" height="26" fill="white"/>
</clipPath>
</defs>
</svg>
