<svg width="26" height="27" viewBox="0 0 26 27" fill="none" xmlns="http://www.w3.org/2000/svg">
<path d="M23 13.5C23.0017 14.8172 22.7423 16.1216 22.2369 17.3379C21.7315 18.5543 20.9901 19.6584 20.0555 20.5865C19.1285 21.5118 18.0283 22.2454 16.8177 22.7453C15.607 23.2452 14.3098 23.5017 13 23.5C7.47701 23.5 3.00001 19.023 3.00001 13.5C2.99651 10.9359 3.98144 8.46908 5.75001 6.61251C6.68318 5.62781 7.80746 4.84388 9.05407 4.3087C10.3007 3.77352 11.6434 3.49834 13 3.50001C14.3098 3.49831 15.607 3.75475 16.8177 4.25466C18.0283 4.75458 19.1285 5.48817 20.0555 6.41351C20.9901 7.34162 21.7315 8.44574 22.2369 9.66208C22.7423 10.8784 23.0017 12.1828 23 13.5Z" stroke="#F6F4F3" stroke-width="2" stroke-linecap="round" stroke-linejoin="round"/>
<path d="M23 13.5C21.541 13.5 17.516 12.95 13.9135 14.5315C10 16.25 7.16652 18.916 5.93152 20.5735" stroke="#F6F4F3" stroke-width="2" stroke-linecap="round" stroke-linejoin="round"/>
<path d="M9.25 4.22705C10.815 5.67155 14.23 9.34905 15.5 13C16.77 16.651 17.24 21.14 17.53 22.4175" stroke="#F6F4F3" stroke-width="2" stroke-linecap="round" stroke-linejoin="round"/>
<path d="M3.07703 12.25C4.96602 12.364 9.96652 12.4665 13.1665 11.1C16.3665 9.73348 19.12 7.21998 20.0645 6.42249M3.75003 17.3065C4.63118 19.4394 6.22038 21.2036 8.25002 22.302" stroke="#F6F4F3" stroke-width="2" stroke-linecap="round" stroke-linejoin="round"/>
<path d="M3.00001 13.5C2.99651 10.9359 3.98144 8.46908 5.75001 6.61251C6.68318 5.62781 7.80746 4.84388 9.05407 4.3087C10.3007 3.77352 11.6434 3.49834 13 3.50001M17 4.33201C18.1388 4.83028 19.1749 5.53612 20.0555 6.41351C20.9901 7.34162 21.7315 8.44574 22.2369 9.66208C22.7423 10.8784 23.0017 12.1828 23 13.5C23 14.731 22.7775 15.9105 22.37 17M13 23.5C14.3098 23.5017 15.607 23.2452 16.8177 22.7453C18.0283 22.2454 19.1285 21.5118 20.0555 20.5865" stroke="#F6F4F3" stroke-width="2" stroke-linecap="round" stroke-linejoin="round"/>
</svg>
