<svg width="24" height="24" viewBox="0 0 24 24" fill="none" xmlns="http://www.w3.org/2000/svg">
<path d="M4.26 10.147C3.98495 12.2526 3.82105 14.3712 3.769 16.494C6.6478 17.6966 9.40418 19.1734 12 20.904C14.5961 19.1733 17.3529 17.6965 20.232 16.494C20.1799 14.3712 20.016 12.2526 19.741 10.147M19.741 10.147C20.616 9.85304 21.503 9.58104 22.399 9.33304C19.1356 7.04529 15.652 5.08893 12 3.49304C8.34799 5.08927 4.8644 7.04596 1.601 9.33404C2.49427 9.58067 3.3806 9.85177 4.259 10.147C6.92762 11.0443 9.5169 12.1621 12 13.489C14.4827 12.1621 17.0727 11.0442 19.741 10.147ZM6.75 15C6.94891 15 7.13968 14.921 7.28033 14.7804C7.42098 14.6397 7.5 14.449 7.5 14.25C7.5 14.0511 7.42098 13.8604 7.28033 13.7197C7.13968 13.5791 6.94891 13.5 6.75 13.5C6.55109 13.5 6.36032 13.5791 6.21967 13.7197C6.07902 13.8604 6 14.0511 6 14.25C6 14.449 6.07902 14.6397 6.21967 14.7804C6.36032 14.921 6.55109 15 6.75 15ZM6.75 15V11.325C8.44673 10.2704 10.1993 9.30831 12 8.44304M4.993 19.993C5.55097 19.4364 5.99344 18.7751 6.29496 18.0469C6.59649 17.3187 6.75113 16.5382 6.75 15.75V14.25" stroke="#B24675" stroke-width="2" stroke-linecap="round" stroke-linejoin="round"/>
</svg>
