<svg width="26" height="27" viewBox="0 0 26 27" fill="none" xmlns="http://www.w3.org/2000/svg">
<g clip-path="url(#clip0_164_114)">
<path d="M20.7 5.5H5.3C4.42479 5.5 3.58542 5.85558 2.96655 6.48851C2.34768 7.12145 2 7.97989 2 8.875V20.125C2 21.0201 2.34768 21.8786 2.96655 22.5115C3.58542 23.1444 4.42479 23.5 5.3 23.5H20.7C21.5752 23.5 22.4146 23.1444 23.0335 22.5115C23.6523 21.8786 24 21.0201 24 20.125V8.875C24 7.97989 23.6523 7.12145 23.0335 6.48851C22.4146 5.85558 21.5752 5.5 20.7 5.5ZM19.963 7.75L13 13.0938L6.037 7.75H19.963ZM20.7 21.25H5.3C5.00826 21.25 4.72847 21.1315 4.52218 20.9205C4.31589 20.7095 4.2 20.4234 4.2 20.125V9.15625L12.34 15.4C12.5304 15.5461 12.762 15.625 13 15.625C13.238 15.625 13.4696 15.5461 13.66 15.4L21.8 9.15625V20.125C21.8 20.4234 21.6841 20.7095 21.4778 20.9205C21.2715 21.1315 20.9917 21.25 20.7 21.25Z" fill="#F6F4F3"/>
</g>
<defs>
<clipPath id="clip0_164_114">
<rect width="26" height="26" fill="white" transform="translate(0 0.5)"/>
</clipPath>
</defs>
</svg>
