<svg width="26" height="26" viewBox="0 0 26 26" fill="none" xmlns="http://www.w3.org/2000/svg">
<path d="M15.3636 10.6364L18.2273 13.5L15.3636 16.3636M9.63636 16.3636L6.77273 13.5L9.63636 10.6364M4.86364 24H20.1364C20.8958 24 21.6242 23.6983 22.1613 23.1613C22.6983 22.6242 23 21.8958 23 21.1364V5.86364C23 5.10415 22.6983 4.37578 22.1613 3.83874C21.6242 3.3017 20.8958 3 20.1364 3H4.86364C4.10415 3 3.37578 3.3017 2.83874 3.83874C2.3017 4.37578 2 5.10415 2 5.86364V21.1364C2 21.8958 2.3017 22.6242 2.83874 23.1613C3.37578 23.6983 4.10415 24 4.86364 24Z" stroke="#B24675" stroke-width="2" stroke-linecap="round" stroke-linejoin="round"/>
</svg>
