<svg width="26" height="27" viewBox="0 0 26 27" fill="none" xmlns="http://www.w3.org/2000/svg">
<g clip-path="url(#clip0_314_462)">
<path d="M10.0588 22.1566C5 23.797 5 19.2272 3 18.6414M17.1176 24.5V20.399C17.1176 19.2272 17.2353 18.7586 16.5294 18.0555C19.8235 17.704 23 16.4151 23 11.0252C22.9986 9.62493 22.4501 8.28019 21.4706 7.27566C21.93 6.05937 21.8877 4.71149 21.3529 3.52615C21.3529 3.52615 20.0588 3.17463 17.2353 5.04939C14.8438 4.42906 12.3327 4.42906 9.94118 5.04939C7.11765 3.17463 5.82353 3.52615 5.82353 3.52615C5.2888 4.71149 5.24651 6.05937 5.70588 7.27566C4.72642 8.28019 4.1779 9.62493 4.17647 11.0252C4.17647 16.4151 7.35294 17.704 10.6471 18.0555C9.94118 18.7586 9.94118 19.4616 10.0588 20.399V24.5" stroke="#F6F4F3" stroke-width="2" stroke-linecap="round" stroke-linejoin="round"/>
</g>
<defs>
<clipPath id="clip0_314_462">
<rect width="26" height="26" fill="white" transform="translate(0 0.5)"/>
</clipPath>
</defs>
</svg>
