<svg width="26" height="27" viewBox="0 0 26 27" fill="none" xmlns="http://www.w3.org/2000/svg">
<path d="M17.3333 9.16663C19.0572 9.16663 20.7105 9.85145 21.9295 11.0704C23.1485 12.2894 23.8333 13.9427 23.8333 15.6666V23.25H19.5V15.6666C19.5 15.092 19.2717 14.5409 18.8654 14.1346C18.459 13.7282 17.9079 13.5 17.3333 13.5C16.7587 13.5 16.2076 13.7282 15.8012 14.1346C15.3949 14.5409 15.1666 15.092 15.1666 15.6666V23.25H10.8333V15.6666C10.8333 13.9427 11.5181 12.2894 12.7371 11.0704C13.9561 9.85145 15.6094 9.16663 17.3333 9.16663Z" stroke="#F6F4F3" stroke-width="2" stroke-linecap="round" stroke-linejoin="round"/>
<path d="M6.50002 10.25H2.16669V23.25H6.50002V10.25Z" stroke="#F6F4F3" stroke-width="2" stroke-linecap="round" stroke-linejoin="round"/>
<path d="M4.33335 6.99996C5.52997 6.99996 6.50002 6.02991 6.50002 4.83329C6.50002 3.63668 5.52997 2.66663 4.33335 2.66663C3.13674 2.66663 2.16669 3.63668 2.16669 4.83329C2.16669 6.02991 3.13674 6.99996 4.33335 6.99996Z" stroke="#F6F4F3" stroke-width="2" stroke-linecap="round" stroke-linejoin="round"/>
</svg>
