<svg xmlns="http://www.w3.org/2000/svg" xmlns:xlink="http://www.w3.org/1999/xlink" width="56" zoomAndPan="magnify" viewBox="0 0 42 42" height="56" preserveAspectRatio="xMidYMid meet" version="1.2"><defs><clipPath id="380cef5831"><path d="M 6 6.449219 L 39 6.449219 L 39 27 L 6 27 Z M 6 6.449219 "/></clipPath><clipPath id="9c399b3f50"><path d="M 2.707031 14 L 35 14 L 35 34.289062 L 2.707031 34.289062 Z M 2.707031 14 "/></clipPath></defs><g id="54f1aad3a9"><g clip-rule="nonzero" clip-path="url(#380cef5831)"><path style=" stroke:none;fill-rule:evenodd;fill:#f6f4f3;fill-opacity:1;" d="M 38.917969 6.449219 L 16.964844 6.449219 C 11.425781 6.449219 6.898438 10.980469 6.898438 16.515625 C 6.898438 22.050781 11.425781 26.582031 16.964844 26.582031 L 18.816406 26.582031 C 18.960938 26.417969 19.113281 26.253906 19.269531 26.097656 Z M 38.917969 6.449219 "/></g><g clip-rule="nonzero" clip-path="url(#9c399b3f50)"><path style=" stroke:none;fill-rule:evenodd;fill:#f6f4f3;fill-opacity:1;" d="M 2.714844 34.289062 L 24.722656 34.289062 C 30.269531 34.289062 34.8125 29.746094 34.8125 24.199219 C 34.8125 18.648438 30.269531 14.105469 24.722656 14.105469 L 22.863281 14.105469 C 22.71875 14.273438 22.566406 14.433594 22.410156 14.59375 L 14.71875 22.28125 Z M 2.714844 34.289062 "/></g><path style=" stroke:none;fill-rule:evenodd;fill:#dbd7d5;fill-opacity:1;" d="M 29.847656 15.519531 C 28.34375 14.621094 26.589844 14.105469 24.722656 14.105469 L 22.863281 14.105469 C 22.71875 14.273438 22.566406 14.433594 22.410156 14.59375 L 14.71875 22.28125 L 11.835938 25.167969 C 13.339844 26.066406 15.09375 26.582031 16.964844 26.582031 L 18.816406 26.582031 C 18.960938 26.417969 19.113281 26.253906 19.269531 26.097656 Z M 29.847656 15.519531 "/></g></svg>