<svg xmlns="http://www.w3.org/2000/svg" xmlns:xlink="http://www.w3.org/1999/xlink" width="48" zoomAndPan="magnify" viewBox="0 0 36 36.000001" height="48" preserveAspectRatio="xMidYMid meet" version="1.2"><defs><clipPath id="7bdc55df8f"><path d="M 11 10.976562 L 26.277344 10.976562 L 26.277344 21 L 11 21 Z M 11 10.976562 "/></clipPath><clipPath id="ad93f8fcc5"><path d="M 9.496094 14 L 25 14 L 25 24 L 9.496094 24 Z M 9.496094 14 "/></clipPath></defs><g id="26a42b4d0b"><g clip-rule="nonzero" clip-path="url(#7bdc55df8f)"><path style=" stroke:none;fill-rule:evenodd;fill:#f6f4f3;fill-opacity:1;" d="M 26.273438 10.976562 L 16.101562 10.976562 C 13.535156 10.976562 11.4375 13.074219 11.4375 15.640625 C 11.4375 18.207031 13.535156 20.304688 16.101562 20.304688 L 16.960938 20.304688 C 17.027344 20.226562 17.097656 20.152344 17.171875 20.078125 Z M 26.273438 10.976562 "/></g><g clip-rule="nonzero" clip-path="url(#ad93f8fcc5)"><path style=" stroke:none;fill-rule:evenodd;fill:#f6f4f3;fill-opacity:1;" d="M 9.496094 23.875 L 19.695312 23.875 C 22.269531 23.875 24.371094 21.769531 24.371094 19.199219 C 24.371094 16.628906 22.269531 14.523438 19.695312 14.523438 L 18.835938 14.523438 C 18.769531 14.601562 18.699219 14.675781 18.625 14.75 L 15.0625 18.3125 Z M 9.496094 23.875 "/></g><path style=" stroke:none;fill-rule:evenodd;fill:#dbd7d5;fill-opacity:1;" d="M 22.074219 15.175781 C 21.375 14.761719 20.5625 14.523438 19.695312 14.523438 L 18.835938 14.523438 C 18.769531 14.601562 18.699219 14.675781 18.625 14.75 L 15.0625 18.3125 L 13.722656 19.648438 C 14.421875 20.066406 15.234375 20.304688 16.101562 20.304688 L 16.960938 20.304688 C 17.027344 20.226562 17.097656 20.152344 17.171875 20.078125 Z M 22.074219 15.175781 "/></g></svg>