<svg width="26" height="26" viewBox="0 0 26 26" fill="none" xmlns="http://www.w3.org/2000/svg">
<g clip-path="url(#clip0_398_533)">
<path d="M21.4 3H4.6C3.64522 3 2.72955 3.39509 2.05442 4.09835C1.37928 4.80161 1 5.75544 1 6.75V19.25C1 20.2446 1.37928 21.1984 2.05442 21.9017C2.72955 22.6049 3.64522 23 4.6 23H21.4C22.3548 23 23.2705 22.6049 23.9456 21.9017C24.6207 21.1984 25 20.2446 25 19.25V6.75C25 5.75544 24.6207 4.80161 23.9456 4.09835C23.2705 3.39509 22.3548 3 21.4 3ZM20.596 5.5L13 11.4375L5.404 5.5H20.596ZM21.4 20.5H4.6C4.28174 20.5 3.97652 20.3683 3.75147 20.1339C3.52643 19.8995 3.4 19.5815 3.4 19.25V7.0625L12.28 14C12.4877 14.1623 12.7404 14.25 13 14.25C13.2596 14.25 13.5123 14.1623 13.72 14L22.6 7.0625V19.25C22.6 19.5815 22.4736 19.8995 22.2485 20.1339C22.0235 20.3683 21.7183 20.5 21.4 20.5Z" fill="#B24675"/>
</g>
<defs>
<clipPath id="clip0_398_533">
<rect width="26" height="26" fill="white"/>
</clipPath>
</defs>
</svg>
