<svg width="26" height="27" viewBox="0 0 26 27" fill="none" xmlns="http://www.w3.org/2000/svg">
<g clip-path="url(#clip0_278_324)">
<path d="M5.35294 4H10.0588L12.4118 9.88235L9.47059 11.6471C10.7305 14.2018 12.7982 16.2695 15.3529 17.5294L17.1176 14.5882L23 16.9412V21.6471C23 22.2711 22.7521 22.8696 22.3108 23.3108C21.8696 23.7521 21.2711 24 20.6471 24C16.058 23.7211 11.7296 21.7724 8.47862 18.5214C5.22765 15.2704 3.27888 10.942 3 6.35294C3 5.7289 3.2479 5.13042 3.68916 4.68916C4.13042 4.2479 4.7289 4 5.35294 4Z" stroke="#B24675" stroke-width="2" stroke-linecap="round" stroke-linejoin="round"/>
</g>
<defs>
<clipPath id="clip0_278_324">
<rect width="26" height="26" fill="white" transform="translate(0 0.5)"/>
</clipPath>
</defs>
</svg>
