<svg width="21" height="20" viewBox="0 0 21 20" fill="none" xmlns="http://www.w3.org/2000/svg">
<g clip-path="url(#clip0_403_590)">
<path d="M8.375 9.875C8.375 10.5712 8.65156 11.2389 9.14384 11.7312C9.63613 12.2234 10.3038 12.5 11 12.5C11.6962 12.5 12.3639 12.2234 12.8562 11.7312C13.3484 11.2389 13.625 10.5712 13.625 9.875C13.625 9.17881 13.3484 8.51113 12.8562 8.01884C12.3639 7.52656 11.6962 7.25 11 7.25C10.3038 7.25 9.63613 7.52656 9.14384 8.01884C8.65156 8.51113 8.375 9.17881 8.375 9.875Z" stroke="#F6F4F3" stroke-width="1.6" stroke-linecap="round" stroke-linejoin="round"/>
<path d="M11 3.75V2" stroke="#F6F4F3" stroke-width="1.6" stroke-linecap="round" stroke-linejoin="round"/>
<path d="M15.375 5.4999L16.6 4.2749" stroke="#F6F4F3" stroke-width="1.6" stroke-linecap="round" stroke-linejoin="round"/>
<path d="M17.125 9.875H18.875" stroke="#F6F4F3" stroke-width="1.6" stroke-linecap="round" stroke-linejoin="round"/>
<path d="M15.375 14.25L16.6 15.475" stroke="#F6F4F3" stroke-width="1.6" stroke-linecap="round" stroke-linejoin="round"/>
<path d="M11 16V17.75" stroke="#F6F4F3" stroke-width="1.6" stroke-linecap="round" stroke-linejoin="round"/>
<path d="M6.62502 14.25L5.40002 15.475" stroke="#F6F4F3" stroke-width="1.6" stroke-linecap="round" stroke-linejoin="round"/>
<path d="M5.75 9.875H4" stroke="#F6F4F3" stroke-width="1.6" stroke-linecap="round" stroke-linejoin="round"/>
<path d="M6.62502 5.4999L5.40002 4.2749" stroke="#F6F4F3" stroke-width="1.6" stroke-linecap="round" stroke-linejoin="round"/>
</g>
<defs>
<clipPath id="clip0_403_590">
<rect width="21" height="20" fill="white"/>
</clipPath>
</defs>
</svg>
