<svg width="26" height="26" viewBox="0 0 26 26" fill="none" xmlns="http://www.w3.org/2000/svg">
<path d="M11.876 16.9103L18.1529 23.1872C18.6912 23.7083 19.4128 23.997 20.162 23.9909C20.9113 23.9848 21.6281 23.6845 22.1578 23.1547C22.6876 22.6249 22.988 21.9081 22.994 21.1589C23.0001 20.4097 22.7115 19.6881 22.1904 19.1498L15.8629 12.8223M11.876 16.9103L14.5634 13.6481C14.9047 13.2346 15.3601 12.9741 15.864 12.8234C16.4561 12.6468 17.1161 12.621 17.7406 12.6726C18.5823 12.7449 19.4283 12.5958 20.1947 12.2402C20.961 11.8845 21.621 11.3346 22.1092 10.6451C22.5974 9.95556 22.8968 9.15037 22.9777 8.3094C23.0586 7.46842 22.9182 6.62092 22.5704 5.85097L19.0433 9.37916C18.4532 9.2427 17.9133 8.94329 17.485 8.51501C17.0567 8.08673 16.7573 7.5468 16.6208 6.95669L20.148 3.42958C19.378 3.08179 18.5305 2.94137 17.6895 3.02227C16.8486 3.10317 16.0434 3.40257 15.3538 3.89077C14.6643 4.37896 14.1144 5.03898 13.7588 5.80532C13.4031 6.57166 13.254 7.41768 13.3263 8.25944C13.4243 9.41792 13.2499 10.697 12.353 11.4356L12.2432 11.5271M11.876 16.9103L6.86423 22.9966C6.62133 23.2927 6.31912 23.5347 5.97707 23.7069C5.63501 23.8791 5.26068 23.9779 4.87817 23.9967C4.49566 24.0155 4.11344 23.954 3.75612 23.8162C3.3988 23.6784 3.0743 23.4673 2.8035 23.1965C2.53269 22.9257 2.32159 22.6012 2.18378 22.2439C2.04596 21.8866 1.98449 21.5043 2.00332 21.1218C2.02214 20.7393 2.12085 20.365 2.29309 20.0229C2.46532 19.6809 2.70727 19.3787 3.00336 19.1358L10.3644 13.0742L5.94262 8.65242H4.42562L2.00315 4.61498L3.61813 3L7.65557 5.42246V6.93947L12.2421 11.526L10.3633 13.0731M19.3642 20.361L16.5379 17.5348M4.82075 21.1685H4.82936V21.1771H4.82075V21.1685Z" stroke="#B24675" stroke-width="1.8" stroke-linecap="round" stroke-linejoin="round"/>
</svg>
